<?xml version="1.0" standalone="no"?>
<!DOCTYPE svg PUBLIC "-//W3C//DTD SVG 20010904//EN"
 "http://www.w3.org/TR/2001/REC-SVG-20010904/DTD/svg10.dtd">
<svg version="1.0" xmlns="http://www.w3.org/2000/svg"
 width="580.000000pt" height="2715.000000pt" viewBox="0 0 580.000000 2715.000000"
 preserveAspectRatio="xMidYMid meet">

<g transform="translate(0.000000,2715.000000) scale(0.100000,-0.100000)"
fill="#000000" stroke="none">
<path d="M2825 27069 c-405 -469 -767 -1109 -1113 -1970 -858 -2137 -1450
-5376 -1637 -8954 -50 -962 -60 -1389 -60 -2565 0 -1065 6 -1350 40 -2150 209
-4800 1130 -8940 2418 -10875 144 -216 402 -545 427 -545 4 0 47 46 96 103
1304 1518 2304 5207 2659 9817 101 1318 142 2544 132 3990 -6 807 -12 1084
-37 1690 -205 4929 -1146 9140 -2476 11071 -121 175 -344 454 -374 466 -3 1
-36 -34 -75 -78z"/>
</g>
</svg>
